# xmcd
#
# Track frame offsets:
#	150
#	14902
#	41005
#	56137
#	75517
#	90805
#	104230
#	117487
#	134492
#	149357
#	171500
#	186492
#	218375
#	243415
#	254257
#	267022
#	279742
#	290307
#	307665
#
# Disc length: 4366 seconds
#
# Revision: 0
# Processed by: cddbd v1.5.2PL0 Copyright (c) Steve Scherf et al.
# Submitted via: dBpowerAMP V4.0
#
DISCID=1d110c13
DTITLE=Several different blues artist - Blues Power
DYEAR=1900
DGENRE=Blues
TTITLE0=Knock-out Greg and Blue Wether - I Don't Know Why
TTITLE1=Knock-out Greg and Blue Wether - The Telephone Is Ringing
TTITLE2=Bill Sims - Big Leg Woman
TTITLE3=Bill Sims - Hard Times
TTITLE4=Helander co. - My Home Town
TTITLE5=Bob Brozman - Obvious Blues
TTITLE6=Bob Brozman - Down The Road
TTITLE7=Bob Brozman - Hawaiian Medley
TTITLE8=Lynwood Slim and Jimi Smith - I Just Keep Loving Her
TTITLE9=Lynwood Slim and Jimi Smith  - Tell Me What I've Done
TTITLE10=T.J. Wheeler - Bible Belt Blues
TTITLE11=T.J. Wheeler, Rocking Jake and The Finnish Smokers - Blues You Can Bank On
TTITLE12=J.Leino and Blues Guys - Sawdust
TTITLE13=Pete Gage - Sometimes I Wonder
TTITLE14=Pete Gage - Going Down Slow
TTITLE15=Groovy Eyes - Texas Googaloo
TTITLE16=Two Timers - Red Hot
TTITLE17=Two Timers - Whole Lotta Love
TTITLE18=Radiomafia I.D. - Fireworks
EXTD=
EXTT0=
EXTT1=
EXTT2=
EXTT3=
EXTT4=
EXTT5=
EXTT6=
EXTT7=
EXTT8=
EXTT9=
EXTT10=
EXTT11=
EXTT12=
EXTT13=
EXTT14=
EXTT15=
EXTT16=
EXTT17=
EXTT18=
PLAYORDER=
